G04 #@! TF.FileFunction,Copper,L2,Bot,Signal*
%FSLAX46Y46*%
G04 Gerber Fmt 4.6, Leading zero omitted, Abs format (unit mm)*
G04 Created by KiCad (PCBNEW (2016-02-18 BZR 6566, Git c2fd462)-product) date Wed 24 Feb 2016 09:41:19 PM EST*
%MOMM*%
G01*
G04 APERTURE LIST*
%ADD10C,0.100000*%
%ADD11C,1.998980*%
%ADD12R,1.998980X1.998980*%
%ADD13R,1.524000X1.524000*%
%ADD14R,2.500000X2.500000*%
%ADD15C,0.800000*%
%ADD16C,0.300000*%
%ADD17C,0.254000*%
G04 APERTURE END LIST*
D10*
D11*
X6500000Y-14000000D03*
D12*
X6500000Y-16540000D03*
D11*
X6500000Y-11460000D03*
D13*
X2000000Y-18000000D03*
X13000000Y-5000000D03*
X2000000Y-9000000D03*
X9500000Y-10500000D03*
D14*
X2000000Y-11750000D03*
X2000000Y-2000000D03*
D15*
X4750000Y-18000000D03*
X8000000Y-18249996D03*
X7200000Y-3200000D03*
X28250000Y-8500000D03*
X24750000Y-15250000D03*
X20250000Y-15250000D03*
X11000000Y-3250000D03*
X24250000Y-4250000D03*
X21750000Y-4250000D03*
X23000000Y-2500000D03*
X23000000Y-5750000D03*
X8500000Y-6000000D03*
X10545104Y-5801547D03*
X13500000Y-7000000D03*
X13500000Y-9500000D03*
X20119551Y-9346926D03*
X18469663Y-10030337D03*
D16*
X7749996Y-18500000D02*
X5250000Y-18500000D01*
X5250000Y-18500000D02*
X4750000Y-18000000D01*
X8000000Y-18249996D02*
X7749996Y-18500000D01*
X8000000Y-18500000D02*
X8000000Y-18249996D01*
X11250000Y-15250000D02*
X8000000Y-18500000D01*
X20250000Y-15250000D02*
X11250000Y-15250000D01*
X24750000Y-15250000D02*
X24750000Y-12000000D01*
X24750000Y-12000000D02*
X28250000Y-8500000D01*
X20250000Y-15250000D02*
X24750000Y-15250000D01*
X13500000Y-9500000D02*
X14500000Y-9500000D01*
X14500000Y-9500000D02*
X20250000Y-15250000D01*
X18469663Y-10030337D02*
X19436140Y-10030337D01*
X19436140Y-10030337D02*
X20119551Y-9346926D01*
D17*
G36*
X29373000Y-19373000D02*
X627000Y-19373000D01*
X627000Y-17238000D01*
X751656Y-17238000D01*
X751656Y-18762000D01*
X788677Y-18948116D01*
X894103Y-19105897D01*
X1051884Y-19211323D01*
X1238000Y-19248344D01*
X2762000Y-19248344D01*
X2948116Y-19211323D01*
X3105897Y-19105897D01*
X3211323Y-18948116D01*
X3248344Y-18762000D01*
X3248344Y-17238000D01*
X3211323Y-17051884D01*
X3105897Y-16894103D01*
X2948116Y-16788677D01*
X2762000Y-16751656D01*
X1238000Y-16751656D01*
X1051884Y-16788677D01*
X894103Y-16894103D01*
X788677Y-17051884D01*
X751656Y-17238000D01*
X627000Y-17238000D01*
X627000Y-15540510D01*
X5014166Y-15540510D01*
X5014166Y-17539490D01*
X5051187Y-17725606D01*
X5156613Y-17883387D01*
X5314394Y-17988813D01*
X5500510Y-18025834D01*
X7499490Y-18025834D01*
X7685606Y-17988813D01*
X7843387Y-17883387D01*
X7948813Y-17725606D01*
X7985834Y-17539490D01*
X7985834Y-15540510D01*
X7948813Y-15354394D01*
X7843387Y-15196613D01*
X7685606Y-15091187D01*
X7528173Y-15059872D01*
X7750977Y-14837456D01*
X7976233Y-14294980D01*
X7976746Y-13707596D01*
X7752437Y-13164728D01*
X7337456Y-12749023D01*
X7292204Y-12730233D01*
X7335272Y-12712437D01*
X7750977Y-12297456D01*
X7976233Y-11754980D01*
X7976746Y-11167596D01*
X7752437Y-10624728D01*
X7337456Y-10209023D01*
X6794980Y-9983767D01*
X6207596Y-9983254D01*
X5664728Y-10207563D01*
X5249023Y-10622544D01*
X5023767Y-11165020D01*
X5023254Y-11752404D01*
X5247563Y-12295272D01*
X5662544Y-12710977D01*
X5707796Y-12729767D01*
X5664728Y-12747563D01*
X5249023Y-13162544D01*
X5023767Y-13705020D01*
X5023254Y-14292404D01*
X5247563Y-14835272D01*
X5471781Y-15059881D01*
X5314394Y-15091187D01*
X5156613Y-15196613D01*
X5051187Y-15354394D01*
X5014166Y-15540510D01*
X627000Y-15540510D01*
X627000Y-13461878D01*
X750000Y-13486344D01*
X3250000Y-13486344D01*
X3436116Y-13449323D01*
X3593897Y-13343897D01*
X3699323Y-13186116D01*
X3736344Y-13000000D01*
X3736344Y-10500000D01*
X3699323Y-10313884D01*
X3593897Y-10156103D01*
X3436116Y-10050677D01*
X3250000Y-10013656D01*
X750000Y-10013656D01*
X627000Y-10038122D01*
X627000Y-9738000D01*
X8251656Y-9738000D01*
X8251656Y-11262000D01*
X8288677Y-11448116D01*
X8394103Y-11605897D01*
X8551884Y-11711323D01*
X8738000Y-11748344D01*
X10262000Y-11748344D01*
X10448116Y-11711323D01*
X10605897Y-11605897D01*
X10711323Y-11448116D01*
X10748344Y-11262000D01*
X10748344Y-10204018D01*
X17592512Y-10204018D01*
X17725745Y-10526468D01*
X17972234Y-10773388D01*
X18294452Y-10907184D01*
X18643344Y-10907488D01*
X18965794Y-10774255D01*
X19082916Y-10657337D01*
X19436140Y-10657337D01*
X19676083Y-10609609D01*
X19879496Y-10473693D01*
X20129255Y-10223934D01*
X20293232Y-10224077D01*
X20615682Y-10090844D01*
X20862602Y-9844355D01*
X20996398Y-9522137D01*
X20996702Y-9173245D01*
X20863469Y-8850795D01*
X20616980Y-8603875D01*
X20294762Y-8470079D01*
X19945870Y-8469775D01*
X19623420Y-8603008D01*
X19376500Y-8849497D01*
X19242704Y-9171715D01*
X19242560Y-9337205D01*
X19176428Y-9403337D01*
X19082940Y-9403337D01*
X18967092Y-9287286D01*
X18644874Y-9153490D01*
X18295982Y-9153186D01*
X17973532Y-9286419D01*
X17726612Y-9532908D01*
X17592816Y-9855126D01*
X17592512Y-10204018D01*
X10748344Y-10204018D01*
X10748344Y-9738000D01*
X10711323Y-9551884D01*
X10605897Y-9394103D01*
X10448116Y-9288677D01*
X10262000Y-9251656D01*
X8738000Y-9251656D01*
X8551884Y-9288677D01*
X8394103Y-9394103D01*
X8288677Y-9551884D01*
X8251656Y-9738000D01*
X627000Y-9738000D01*
X627000Y-4238000D01*
X11751656Y-4238000D01*
X11751656Y-5762000D01*
X11788677Y-5948116D01*
X11894103Y-6105897D01*
X12051884Y-6211323D01*
X12238000Y-6248344D01*
X13762000Y-6248344D01*
X13948116Y-6211323D01*
X14105897Y-6105897D01*
X14211323Y-5948116D01*
X14248344Y-5762000D01*
X14248344Y-4238000D01*
X14211323Y-4051884D01*
X14105897Y-3894103D01*
X13948116Y-3788677D01*
X13762000Y-3751656D01*
X12238000Y-3751656D01*
X12051884Y-3788677D01*
X11894103Y-3894103D01*
X11788677Y-4051884D01*
X11751656Y-4238000D01*
X627000Y-4238000D01*
X627000Y-3711878D01*
X750000Y-3736344D01*
X3250000Y-3736344D01*
X3436116Y-3699323D01*
X3593897Y-3593897D01*
X3699323Y-3436116D01*
X3736344Y-3250000D01*
X3736344Y-750000D01*
X3711878Y-627000D01*
X29373000Y-627000D01*
X29373000Y-19373000D01*
X29373000Y-19373000D01*
G37*
X29373000Y-19373000D02*
X627000Y-19373000D01*
X627000Y-17238000D01*
X751656Y-17238000D01*
X751656Y-18762000D01*
X788677Y-18948116D01*
X894103Y-19105897D01*
X1051884Y-19211323D01*
X1238000Y-19248344D01*
X2762000Y-19248344D01*
X2948116Y-19211323D01*
X3105897Y-19105897D01*
X3211323Y-18948116D01*
X3248344Y-18762000D01*
X3248344Y-17238000D01*
X3211323Y-17051884D01*
X3105897Y-16894103D01*
X2948116Y-16788677D01*
X2762000Y-16751656D01*
X1238000Y-16751656D01*
X1051884Y-16788677D01*
X894103Y-16894103D01*
X788677Y-17051884D01*
X751656Y-17238000D01*
X627000Y-17238000D01*
X627000Y-15540510D01*
X5014166Y-15540510D01*
X5014166Y-17539490D01*
X5051187Y-17725606D01*
X5156613Y-17883387D01*
X5314394Y-17988813D01*
X5500510Y-18025834D01*
X7499490Y-18025834D01*
X7685606Y-17988813D01*
X7843387Y-17883387D01*
X7948813Y-17725606D01*
X7985834Y-17539490D01*
X7985834Y-15540510D01*
X7948813Y-15354394D01*
X7843387Y-15196613D01*
X7685606Y-15091187D01*
X7528173Y-15059872D01*
X7750977Y-14837456D01*
X7976233Y-14294980D01*
X7976746Y-13707596D01*
X7752437Y-13164728D01*
X7337456Y-12749023D01*
X7292204Y-12730233D01*
X7335272Y-12712437D01*
X7750977Y-12297456D01*
X7976233Y-11754980D01*
X7976746Y-11167596D01*
X7752437Y-10624728D01*
X7337456Y-10209023D01*
X6794980Y-9983767D01*
X6207596Y-9983254D01*
X5664728Y-10207563D01*
X5249023Y-10622544D01*
X5023767Y-11165020D01*
X5023254Y-11752404D01*
X5247563Y-12295272D01*
X5662544Y-12710977D01*
X5707796Y-12729767D01*
X5664728Y-12747563D01*
X5249023Y-13162544D01*
X5023767Y-13705020D01*
X5023254Y-14292404D01*
X5247563Y-14835272D01*
X5471781Y-15059881D01*
X5314394Y-15091187D01*
X5156613Y-15196613D01*
X5051187Y-15354394D01*
X5014166Y-15540510D01*
X627000Y-15540510D01*
X627000Y-13461878D01*
X750000Y-13486344D01*
X3250000Y-13486344D01*
X3436116Y-13449323D01*
X3593897Y-13343897D01*
X3699323Y-13186116D01*
X3736344Y-13000000D01*
X3736344Y-10500000D01*
X3699323Y-10313884D01*
X3593897Y-10156103D01*
X3436116Y-10050677D01*
X3250000Y-10013656D01*
X750000Y-10013656D01*
X627000Y-10038122D01*
X627000Y-9738000D01*
X8251656Y-9738000D01*
X8251656Y-11262000D01*
X8288677Y-11448116D01*
X8394103Y-11605897D01*
X8551884Y-11711323D01*
X8738000Y-11748344D01*
X10262000Y-11748344D01*
X10448116Y-11711323D01*
X10605897Y-11605897D01*
X10711323Y-11448116D01*
X10748344Y-11262000D01*
X10748344Y-10204018D01*
X17592512Y-10204018D01*
X17725745Y-10526468D01*
X17972234Y-10773388D01*
X18294452Y-10907184D01*
X18643344Y-10907488D01*
X18965794Y-10774255D01*
X19082916Y-10657337D01*
X19436140Y-10657337D01*
X19676083Y-10609609D01*
X19879496Y-10473693D01*
X20129255Y-10223934D01*
X20293232Y-10224077D01*
X20615682Y-10090844D01*
X20862602Y-9844355D01*
X20996398Y-9522137D01*
X20996702Y-9173245D01*
X20863469Y-8850795D01*
X20616980Y-8603875D01*
X20294762Y-8470079D01*
X19945870Y-8469775D01*
X19623420Y-8603008D01*
X19376500Y-8849497D01*
X19242704Y-9171715D01*
X19242560Y-9337205D01*
X19176428Y-9403337D01*
X19082940Y-9403337D01*
X18967092Y-9287286D01*
X18644874Y-9153490D01*
X18295982Y-9153186D01*
X17973532Y-9286419D01*
X17726612Y-9532908D01*
X17592816Y-9855126D01*
X17592512Y-10204018D01*
X10748344Y-10204018D01*
X10748344Y-9738000D01*
X10711323Y-9551884D01*
X10605897Y-9394103D01*
X10448116Y-9288677D01*
X10262000Y-9251656D01*
X8738000Y-9251656D01*
X8551884Y-9288677D01*
X8394103Y-9394103D01*
X8288677Y-9551884D01*
X8251656Y-9738000D01*
X627000Y-9738000D01*
X627000Y-4238000D01*
X11751656Y-4238000D01*
X11751656Y-5762000D01*
X11788677Y-5948116D01*
X11894103Y-6105897D01*
X12051884Y-6211323D01*
X12238000Y-6248344D01*
X13762000Y-6248344D01*
X13948116Y-6211323D01*
X14105897Y-6105897D01*
X14211323Y-5948116D01*
X14248344Y-5762000D01*
X14248344Y-4238000D01*
X14211323Y-4051884D01*
X14105897Y-3894103D01*
X13948116Y-3788677D01*
X13762000Y-3751656D01*
X12238000Y-3751656D01*
X12051884Y-3788677D01*
X11894103Y-3894103D01*
X11788677Y-4051884D01*
X11751656Y-4238000D01*
X627000Y-4238000D01*
X627000Y-3711878D01*
X750000Y-3736344D01*
X3250000Y-3736344D01*
X3436116Y-3699323D01*
X3593897Y-3593897D01*
X3699323Y-3436116D01*
X3736344Y-3250000D01*
X3736344Y-750000D01*
X3711878Y-627000D01*
X29373000Y-627000D01*
X29373000Y-19373000D01*
M02*
