G04 #@! TF.FileFunction,Soldermask,Top*
%FSLAX46Y46*%
G04 Gerber Fmt 4.6, Leading zero omitted, Abs format (unit mm)*
G04 Created by KiCad (PCBNEW (2016-02-18 BZR 6566, Git c2fd462)-product) date Thu 25 Feb 2016 06:22:52 PM EST*
%MOMM*%
G01*
G04 APERTURE LIST*
%ADD10C,0.100000*%
%ADD11C,0.150000*%
%ADD12R,1.550000X2.400000*%
%ADD13R,0.850000X0.650000*%
%ADD14C,1.998980*%
%ADD15R,1.998980X1.998980*%
%ADD16R,1.800000X1.050000*%
%ADD17R,1.100000X2.100000*%
%ADD18R,3.500000X2.100000*%
%ADD19R,1.524000X1.524000*%
%ADD20R,2.500000X2.500000*%
%ADD21R,1.100000X0.600000*%
%ADD22R,0.800100X0.899160*%
%ADD23R,0.950000X1.450000*%
%ADD24R,0.950000X1.000000*%
%ADD25R,1.150000X1.450000*%
%ADD26R,0.900000X0.950000*%
%ADD27R,0.950000X0.900000*%
%ADD28R,0.600000X0.600000*%
%ADD29C,3.500000*%
G04 APERTURE END LIST*
D10*
D11*
X18377000Y-1611000D02*
X18123000Y-1611000D01*
X18377000Y-3389000D02*
X18123000Y-3389000D01*
X18250000Y-1611000D02*
X18250000Y-3389000D01*
X17361000Y-2182500D02*
X17361000Y-2881000D01*
X17615000Y-3198500D02*
X17615000Y-1801500D01*
X17742000Y-1738000D02*
X17742000Y-3262000D01*
X17869000Y-3325500D02*
X17869000Y-1674500D01*
X17996000Y-1674500D02*
X17996000Y-3325500D01*
X18123000Y-3389000D02*
X18123000Y-1611000D01*
X18123000Y-1611000D02*
G75*
G03X17234000Y-2500000I0J-889000D01*
G01*
X17234000Y-2500000D02*
G75*
G03X18123000Y-3389000I889000J0D01*
G01*
X19139000Y-2881000D02*
X19139000Y-2119000D01*
X18885000Y-1801500D02*
X18885000Y-3198500D01*
X18758000Y-3262000D02*
X18758000Y-1738000D01*
X18631000Y-1674500D02*
X18631000Y-3325500D01*
X18504000Y-3325500D02*
X18504000Y-1674500D01*
X18377000Y-3389000D02*
X18377000Y-1611000D01*
X19266000Y-2500000D02*
G75*
G03X18377000Y-1611000I-889000J0D01*
G01*
X18377000Y-3389000D02*
G75*
G03X19266000Y-2500000I0J889000D01*
G01*
X16889000Y-5127000D02*
X16889000Y-4873000D01*
X15111000Y-5127000D02*
X15111000Y-4873000D01*
X16889000Y-5000000D02*
X15111000Y-5000000D01*
X16317500Y-4111000D02*
X15619000Y-4111000D01*
X15301500Y-4365000D02*
X16698500Y-4365000D01*
X16762000Y-4492000D02*
X15238000Y-4492000D01*
X15174500Y-4619000D02*
X16825500Y-4619000D01*
X16825500Y-4746000D02*
X15174500Y-4746000D01*
X15111000Y-4873000D02*
X16889000Y-4873000D01*
X16889000Y-4873000D02*
G75*
G03X16000000Y-3984000I-889000J0D01*
G01*
X16000000Y-3984000D02*
G75*
G03X15111000Y-4873000I0J-889000D01*
G01*
X15619000Y-5889000D02*
X16381000Y-5889000D01*
X16698500Y-5635000D02*
X15301500Y-5635000D01*
X15238000Y-5508000D02*
X16762000Y-5508000D01*
X16825500Y-5381000D02*
X15174500Y-5381000D01*
X15174500Y-5254000D02*
X16825500Y-5254000D01*
X15111000Y-5127000D02*
X16889000Y-5127000D01*
X16000000Y-6016000D02*
G75*
G03X16889000Y-5127000I0J889000D01*
G01*
X15111000Y-5127000D02*
G75*
G03X16000000Y-6016000I889000J0D01*
G01*
D12*
X27000000Y-13650000D03*
X27000000Y-17850000D03*
D13*
X18050000Y-7350000D03*
X18050000Y-8650000D03*
X19950000Y-8000000D03*
D14*
X6500000Y-14000000D03*
D15*
X6500000Y-16540000D03*
D14*
X6500000Y-11460000D03*
D16*
X5000000Y-7500000D03*
X5000000Y-4500000D03*
D17*
X22800000Y-11650000D03*
X20500000Y-11650000D03*
X18200000Y-11650000D03*
D18*
X20500000Y-17850000D03*
D19*
X2000000Y-18000000D03*
X13000000Y-5000000D03*
X2000000Y-9000000D03*
X9500000Y-10500000D03*
D20*
X2000000Y-11750000D03*
X2000000Y-2000000D03*
D21*
X9600000Y-6950000D03*
X9600000Y-5050000D03*
X9600000Y-6000000D03*
X7400000Y-5050000D03*
X7400000Y-6950000D03*
D22*
X8750000Y-1350840D03*
X8750000Y-3149160D03*
D10*
G36*
X18350000Y-3150000D02*
X18350000Y-1850000D01*
X19150000Y-1950000D01*
X19150000Y-3050000D01*
X18350000Y-3150000D01*
X18350000Y-3150000D01*
G37*
G36*
X18150000Y-1850000D02*
X18150000Y-3150000D01*
X17350000Y-3050000D01*
X17350000Y-1950000D01*
X18150000Y-1850000D01*
X18150000Y-1850000D01*
G37*
G36*
X15350000Y-5100000D02*
X16650000Y-5100000D01*
X16550000Y-5900000D01*
X15450000Y-5900000D01*
X15350000Y-5100000D01*
X15350000Y-5100000D01*
G37*
G36*
X16650000Y-4900000D02*
X15350000Y-4900000D01*
X15450000Y-4100000D01*
X16550000Y-4100000D01*
X16650000Y-4900000D01*
X16650000Y-4900000D01*
G37*
D23*
X9500000Y-13500000D03*
X11500000Y-13500000D03*
X9500000Y-17500000D03*
X11500000Y-17500000D03*
D24*
X13450000Y-17250000D03*
X15050000Y-17250000D03*
D12*
X27000000Y-10600000D03*
X27000000Y-6400000D03*
X23000000Y-8350000D03*
X23000000Y-4150000D03*
D25*
X11600000Y-8250000D03*
X13400000Y-8250000D03*
X5350000Y-2000000D03*
X7150000Y-2000000D03*
D26*
X1250000Y-14100000D03*
X2750000Y-14100000D03*
D27*
X16250000Y-3000000D03*
X16250000Y-1500000D03*
D13*
X15950000Y-11150000D03*
X15950000Y-9850000D03*
X14050000Y-10500000D03*
X12550000Y-1600000D03*
X12550000Y-2900000D03*
X14450000Y-2250000D03*
D28*
X11200000Y-1550000D03*
X11200000Y-2450000D03*
X11250000Y-4300000D03*
X11250000Y-5200000D03*
X12500000Y-10300000D03*
X12500000Y-11200000D03*
X11300000Y-6500000D03*
X12200000Y-6500000D03*
X11250000Y-10300000D03*
X11250000Y-11200000D03*
D13*
X18050000Y-4600000D03*
X18050000Y-5900000D03*
X19950000Y-5250000D03*
D28*
X2450000Y-15400000D03*
X1550000Y-15400000D03*
D29*
X14600000Y-14000000D03*
X27400000Y-2600000D03*
D28*
X10100000Y-1550000D03*
X10100000Y-2450000D03*
X9550000Y-15500000D03*
X10450000Y-15500000D03*
X2450000Y-16500000D03*
X1550000Y-16500000D03*
M02*
