G04 #@! TF.FileFunction,Legend,Top*
%FSLAX46Y46*%
G04 Gerber Fmt 4.6, Leading zero omitted, Abs format (unit mm)*
G04 Created by KiCad (PCBNEW (2016-02-18 BZR 6566, Git c2fd462)-product) date Wed 24 Feb 2016 09:41:19 PM EST*
%MOMM*%
G01*
G04 APERTURE LIST*
%ADD10C,0.100000*%
%ADD11C,0.187500*%
%ADD12C,0.250000*%
%ADD13C,0.350000*%
%ADD14C,0.150000*%
%ADD15R,0.850000X0.650000*%
%ADD16R,1.550000X2.400000*%
%ADD17C,1.998980*%
%ADD18R,1.998980X1.998980*%
%ADD19R,1.800000X1.050000*%
%ADD20R,1.100000X2.100000*%
%ADD21R,3.500000X2.100000*%
%ADD22R,1.524000X1.524000*%
%ADD23R,2.500000X2.500000*%
%ADD24R,1.100000X0.600000*%
%ADD25R,0.800100X0.899160*%
%ADD26R,0.950000X1.450000*%
%ADD27R,0.950000X1.000000*%
%ADD28R,1.150000X1.450000*%
%ADD29R,0.900000X0.950000*%
%ADD30R,0.950000X0.900000*%
%ADD31R,0.600000X0.600000*%
%ADD32C,4.500000*%
G04 APERTURE END LIST*
D10*
D11*
X3503571Y-19561905D02*
X3503571Y-18761905D01*
X3753571Y-19333333D01*
X4003571Y-18761905D01*
X4003571Y-19561905D01*
X4503572Y-18761905D02*
X4646429Y-18761905D01*
X4717857Y-18800000D01*
X4789286Y-18876190D01*
X4825000Y-19028571D01*
X4825000Y-19295238D01*
X4789286Y-19447619D01*
X4717857Y-19523810D01*
X4646429Y-19561905D01*
X4503572Y-19561905D01*
X4432143Y-19523810D01*
X4360714Y-19447619D01*
X4325000Y-19295238D01*
X4325000Y-19028571D01*
X4360714Y-18876190D01*
X4432143Y-18800000D01*
X4503572Y-18761905D01*
X5146428Y-19561905D02*
X5146428Y-18761905D01*
X5325000Y-18761905D01*
X5432143Y-18800000D01*
X5503571Y-18876190D01*
X5539286Y-18952381D01*
X5575000Y-19104762D01*
X5575000Y-19219048D01*
X5539286Y-19371429D01*
X5503571Y-19447619D01*
X5432143Y-19523810D01*
X5325000Y-19561905D01*
X5146428Y-19561905D01*
X6289286Y-19561905D02*
X5860714Y-19561905D01*
X6075000Y-19561905D02*
X6075000Y-18761905D01*
X6003571Y-18876190D01*
X5932143Y-18952381D01*
X5860714Y-18990476D01*
X6575000Y-18838095D02*
X6610714Y-18800000D01*
X6682143Y-18761905D01*
X6860714Y-18761905D01*
X6932143Y-18800000D01*
X6967857Y-18838095D01*
X7003572Y-18914286D01*
X7003572Y-18990476D01*
X6967857Y-19104762D01*
X6539286Y-19561905D01*
X7003572Y-19561905D01*
X7467858Y-18761905D02*
X7539286Y-18761905D01*
X7610715Y-18800000D01*
X7646429Y-18838095D01*
X7682143Y-18914286D01*
X7717858Y-19066667D01*
X7717858Y-19257143D01*
X7682143Y-19409524D01*
X7646429Y-19485714D01*
X7610715Y-19523810D01*
X7539286Y-19561905D01*
X7467858Y-19561905D01*
X7396429Y-19523810D01*
X7360715Y-19485714D01*
X7325000Y-19409524D01*
X7289286Y-19257143D01*
X7289286Y-19066667D01*
X7325000Y-18914286D01*
X7360715Y-18838095D01*
X7396429Y-18800000D01*
X7467858Y-18761905D01*
X8182144Y-18761905D02*
X8253572Y-18761905D01*
X8325001Y-18800000D01*
X8360715Y-18838095D01*
X8396429Y-18914286D01*
X8432144Y-19066667D01*
X8432144Y-19257143D01*
X8396429Y-19409524D01*
X8360715Y-19485714D01*
X8325001Y-19523810D01*
X8253572Y-19561905D01*
X8182144Y-19561905D01*
X8110715Y-19523810D01*
X8075001Y-19485714D01*
X8039286Y-19409524D01*
X8003572Y-19257143D01*
X8003572Y-19066667D01*
X8039286Y-18914286D01*
X8075001Y-18838095D01*
X8110715Y-18800000D01*
X8182144Y-18761905D01*
X8682144Y-18761905D02*
X9146430Y-18761905D01*
X8896430Y-19066667D01*
X9003572Y-19066667D01*
X9075001Y-19104762D01*
X9110715Y-19142857D01*
X9146430Y-19219048D01*
X9146430Y-19409524D01*
X9110715Y-19485714D01*
X9075001Y-19523810D01*
X9003572Y-19561905D01*
X8789287Y-19561905D01*
X8717858Y-19523810D01*
X8682144Y-19485714D01*
X10039287Y-19561905D02*
X10039287Y-18761905D01*
X10217859Y-18761905D01*
X10325002Y-18800000D01*
X10396430Y-18876190D01*
X10432145Y-18952381D01*
X10467859Y-19104762D01*
X10467859Y-19219048D01*
X10432145Y-19371429D01*
X10396430Y-19447619D01*
X10325002Y-19523810D01*
X10217859Y-19561905D01*
X10039287Y-19561905D01*
X11217859Y-19561905D02*
X10967859Y-19180952D01*
X10789287Y-19561905D02*
X10789287Y-18761905D01*
X11075002Y-18761905D01*
X11146430Y-18800000D01*
X11182145Y-18838095D01*
X11217859Y-18914286D01*
X11217859Y-19028571D01*
X11182145Y-19104762D01*
X11146430Y-19142857D01*
X11075002Y-19180952D01*
X10789287Y-19180952D01*
X11539287Y-19561905D02*
X11539287Y-18761905D01*
X11789288Y-18761905D02*
X12039288Y-19561905D01*
X12289288Y-18761905D01*
X12539287Y-19142857D02*
X12789287Y-19142857D01*
X12896430Y-19561905D02*
X12539287Y-19561905D01*
X12539287Y-18761905D01*
X12896430Y-18761905D01*
X13646430Y-19561905D02*
X13396430Y-19180952D01*
X13217858Y-19561905D02*
X13217858Y-18761905D01*
X13503573Y-18761905D01*
X13575001Y-18800000D01*
X13610716Y-18838095D01*
X13646430Y-18914286D01*
X13646430Y-19028571D01*
X13610716Y-19104762D01*
X13575001Y-19142857D01*
X13503573Y-19180952D01*
X13217858Y-19180952D01*
X14789287Y-19142857D02*
X14896430Y-19180952D01*
X14932145Y-19219048D01*
X14967859Y-19295238D01*
X14967859Y-19409524D01*
X14932145Y-19485714D01*
X14896430Y-19523810D01*
X14825002Y-19561905D01*
X14539287Y-19561905D01*
X14539287Y-18761905D01*
X14789287Y-18761905D01*
X14860716Y-18800000D01*
X14896430Y-18838095D01*
X14932145Y-18914286D01*
X14932145Y-18990476D01*
X14896430Y-19066667D01*
X14860716Y-19104762D01*
X14789287Y-19142857D01*
X14539287Y-19142857D01*
X15432145Y-18761905D02*
X15575002Y-18761905D01*
X15646430Y-18800000D01*
X15717859Y-18876190D01*
X15753573Y-19028571D01*
X15753573Y-19295238D01*
X15717859Y-19447619D01*
X15646430Y-19523810D01*
X15575002Y-19561905D01*
X15432145Y-19561905D01*
X15360716Y-19523810D01*
X15289287Y-19447619D01*
X15253573Y-19295238D01*
X15253573Y-19028571D01*
X15289287Y-18876190D01*
X15360716Y-18800000D01*
X15432145Y-18761905D01*
X16075001Y-19561905D02*
X16075001Y-18761905D01*
X16253573Y-18761905D01*
X16360716Y-18800000D01*
X16432144Y-18876190D01*
X16467859Y-18952381D01*
X16503573Y-19104762D01*
X16503573Y-19219048D01*
X16467859Y-19371429D01*
X16432144Y-19447619D01*
X16360716Y-19523810D01*
X16253573Y-19561905D01*
X16075001Y-19561905D01*
X17217859Y-18800000D02*
X17146430Y-18761905D01*
X17039287Y-18761905D01*
X16932144Y-18800000D01*
X16860716Y-18876190D01*
X16825001Y-18952381D01*
X16789287Y-19104762D01*
X16789287Y-19219048D01*
X16825001Y-19371429D01*
X16860716Y-19447619D01*
X16932144Y-19523810D01*
X17039287Y-19561905D01*
X17110716Y-19561905D01*
X17217859Y-19523810D01*
X17253573Y-19485714D01*
X17253573Y-19219048D01*
X17110716Y-19219048D01*
X17575001Y-19142857D02*
X17825001Y-19142857D01*
X17932144Y-19561905D02*
X17575001Y-19561905D01*
X17575001Y-18761905D01*
X17932144Y-18761905D01*
D12*
X1029512Y-6914343D02*
X1110011Y-6741712D01*
X1193418Y-6675522D01*
X1319982Y-6629456D01*
X1512737Y-6666797D01*
X1814840Y-6807670D01*
X1967345Y-6931326D01*
X2013411Y-7057891D01*
X2016319Y-7164330D01*
X1935820Y-7336961D01*
X1852413Y-7403151D01*
X1725849Y-7449217D01*
X1533094Y-7411876D01*
X1230991Y-7271003D01*
X1078486Y-7147347D01*
X1032420Y-7020782D01*
X1029512Y-6914343D01*
X1472255Y-5964878D02*
X1552754Y-5792247D01*
X1636161Y-5726057D01*
X1762725Y-5679991D01*
X1955479Y-5717332D01*
X2257583Y-5858205D01*
X2410088Y-5981861D01*
X2456154Y-6108425D01*
X2459062Y-6214865D01*
X2378563Y-6387496D01*
X2295156Y-6453686D01*
X2168592Y-6499752D01*
X1975837Y-6462411D01*
X1673734Y-6321538D01*
X1521229Y-6197881D01*
X1475163Y-6071317D01*
X1472255Y-5964878D01*
X2740807Y-5610660D02*
X1834499Y-5188042D01*
X1995497Y-4842782D01*
X2078904Y-4776591D01*
X2142186Y-4753558D01*
X2248625Y-4750650D01*
X2378098Y-4811024D01*
X2444288Y-4894431D01*
X2467321Y-4957713D01*
X2470229Y-5064153D01*
X2309231Y-5409413D01*
X3100143Y-4727385D02*
X3203674Y-4618038D01*
X3304298Y-4402249D01*
X3301390Y-4295810D01*
X3278357Y-4232528D01*
X3212167Y-4149121D01*
X3125852Y-4108872D01*
X3019412Y-4111780D01*
X2956130Y-4134813D01*
X2872723Y-4201002D01*
X2749066Y-4353509D01*
X2665659Y-4419699D01*
X2602377Y-4442732D01*
X2495938Y-4445640D01*
X2409623Y-4405391D01*
X2343432Y-4321984D01*
X2320400Y-4258702D01*
X2317491Y-4152262D01*
X2418115Y-3936474D01*
X2521647Y-3827126D01*
D13*
X19500000Y-8750000D02*
X19500000Y-9000000D01*
X19500000Y-9000000D02*
X19000000Y-9000000D01*
X19000000Y-7000000D02*
X19500000Y-7000000D01*
X19500000Y-7000000D02*
X19500000Y-7250000D01*
X28156000Y-13023000D02*
X28427000Y-13023000D01*
X28427000Y-18477000D02*
X28156000Y-18477000D01*
X25844000Y-13023000D02*
X25573000Y-13023000D01*
X25573000Y-13023000D02*
X25573000Y-18477000D01*
X25573000Y-18477000D02*
X25844000Y-18477000D01*
X28321100Y-12261000D02*
X28448100Y-12388000D01*
X28448100Y-12388000D02*
X28321100Y-12515000D01*
X28321100Y-12515000D02*
X28194100Y-12388000D01*
X28194100Y-12388000D02*
X28321100Y-12261000D01*
D14*
X4500000Y-9500000D02*
X4500000Y-18500000D01*
X8500000Y-9500000D02*
X4500000Y-9500000D01*
X8500000Y-18500000D02*
X8500000Y-9500000D01*
X4500000Y-18500000D02*
X8500000Y-18500000D01*
X8000000Y-17500000D02*
X8000000Y-15500000D01*
D13*
X5646000Y-6721000D02*
X5646000Y-5279000D01*
X5646000Y-5279000D02*
X5646000Y-6721000D01*
X4354000Y-6721000D02*
X4354000Y-5279000D01*
X4354000Y-5279000D02*
X4354000Y-6721000D01*
D14*
X23850000Y-12900000D02*
X23850000Y-16600000D01*
X23850000Y-16600000D02*
X17150000Y-16600000D01*
X17150000Y-16600000D02*
X17150000Y-12900000D01*
X17150000Y-12900000D02*
X23850000Y-12900000D01*
D13*
X8750000Y-7500000D02*
X8250000Y-7500000D01*
X8250000Y-7500000D02*
X8250000Y-4500000D01*
X8250000Y-4500000D02*
X8750000Y-4500000D01*
X8750000Y-4500000D02*
X8750000Y-7500000D01*
D14*
X8500000Y-2500000D02*
X8500000Y-2000000D01*
X9000000Y-2000000D02*
X9000000Y-2500000D01*
X9250000Y-500000D02*
X8250000Y-500000D01*
D13*
X10229000Y-13971000D02*
X10771000Y-13971000D01*
X10771000Y-13971000D02*
X10229000Y-13971000D01*
X10229000Y-13029000D02*
X10771000Y-13029000D01*
X10771000Y-13029000D02*
X10229000Y-13029000D01*
X10229000Y-17971000D02*
X10771000Y-17971000D01*
X10771000Y-17971000D02*
X10229000Y-17971000D01*
X10229000Y-17029000D02*
X10771000Y-17029000D01*
X10771000Y-17029000D02*
X10229000Y-17029000D01*
X14179000Y-17496000D02*
X14321000Y-17496000D01*
X14321000Y-17496000D02*
X14179000Y-17496000D01*
X14179000Y-17004000D02*
X14321000Y-17004000D01*
X14321000Y-17004000D02*
X14179000Y-17004000D01*
X25844000Y-11227000D02*
X25573000Y-11227000D01*
X25573000Y-11227000D02*
X25573000Y-5773000D01*
X25573000Y-5773000D02*
X25844000Y-5773000D01*
X28156000Y-11227000D02*
X28427000Y-11227000D01*
X28427000Y-11227000D02*
X28427000Y-5773000D01*
X28427000Y-5773000D02*
X28156000Y-5773000D01*
X25678900Y-11989000D02*
X25551900Y-11862000D01*
X25551900Y-11862000D02*
X25678900Y-11735000D01*
X25678900Y-11735000D02*
X25805900Y-11862000D01*
X25805900Y-11862000D02*
X25678900Y-11989000D01*
X21844000Y-8977000D02*
X21573000Y-8977000D01*
X21573000Y-8977000D02*
X21573000Y-3523000D01*
X21573000Y-3523000D02*
X21844000Y-3523000D01*
X24156000Y-8977000D02*
X24427000Y-8977000D01*
X24427000Y-8977000D02*
X24427000Y-3523000D01*
X24427000Y-3523000D02*
X24156000Y-3523000D01*
X21678900Y-9739000D02*
X21551900Y-9612000D01*
X21551900Y-9612000D02*
X21678900Y-9485000D01*
X21678900Y-9485000D02*
X21805900Y-9612000D01*
X21805900Y-9612000D02*
X21678900Y-9739000D01*
X12429000Y-8721000D02*
X12571000Y-8721000D01*
X12571000Y-8721000D02*
X12429000Y-8721000D01*
X12429000Y-7779000D02*
X12571000Y-7779000D01*
X12571000Y-7779000D02*
X12429000Y-7779000D01*
X6179000Y-2471000D02*
X6321000Y-2471000D01*
X6321000Y-2471000D02*
X6179000Y-2471000D01*
X6179000Y-1529000D02*
X6321000Y-1529000D01*
X6321000Y-1529000D02*
X6179000Y-1529000D01*
X1954000Y-14321000D02*
X2046000Y-14321000D01*
X2046000Y-14321000D02*
X1954000Y-14321000D01*
X1954000Y-13879000D02*
X2046000Y-13879000D01*
X2046000Y-13879000D02*
X1954000Y-13879000D01*
X16471000Y-2296000D02*
X16471000Y-2204000D01*
X16471000Y-2204000D02*
X16471000Y-2296000D01*
X16029000Y-2296000D02*
X16029000Y-2204000D01*
X16029000Y-2204000D02*
X16029000Y-2296000D01*
X14500000Y-9750000D02*
X14500000Y-9500000D01*
X14500000Y-9500000D02*
X15000000Y-9500000D01*
X15000000Y-11500000D02*
X14500000Y-11500000D01*
X14500000Y-11500000D02*
X14500000Y-11250000D01*
X14000000Y-3000000D02*
X14000000Y-3250000D01*
X14000000Y-3250000D02*
X13500000Y-3250000D01*
X13500000Y-1250000D02*
X14000000Y-1250000D01*
X14000000Y-1250000D02*
X14000000Y-1500000D01*
X19500000Y-6000000D02*
X19500000Y-6250000D01*
X19500000Y-6250000D02*
X19000000Y-6250000D01*
X19000000Y-4250000D02*
X19500000Y-4250000D01*
X19500000Y-4250000D02*
X19500000Y-4500000D01*
D14*
X6883333Y-14066667D02*
X6850000Y-14133333D01*
X6783333Y-14200000D01*
X6683333Y-14300000D01*
X6650000Y-14366667D01*
X6650000Y-14433333D01*
X6816667Y-14400000D02*
X6783333Y-14466667D01*
X6716667Y-14533333D01*
X6583333Y-14566667D01*
X6350000Y-14566667D01*
X6216667Y-14533333D01*
X6150000Y-14466667D01*
X6116667Y-14400000D01*
X6116667Y-14266667D01*
X6150000Y-14200000D01*
X6216667Y-14133333D01*
X6350000Y-14100000D01*
X6583333Y-14100000D01*
X6716667Y-14133333D01*
X6783333Y-14200000D01*
X6816667Y-14266667D01*
X6816667Y-14400000D01*
X6350000Y-13500000D02*
X6816667Y-13500000D01*
X6083333Y-13666667D02*
X6583333Y-13833334D01*
X6583333Y-13400000D01*
X3950000Y-17999999D02*
X3983333Y-18033333D01*
X4016667Y-18133333D01*
X4016667Y-18199999D01*
X3983333Y-18299999D01*
X3916667Y-18366666D01*
X3850000Y-18399999D01*
X3716667Y-18433333D01*
X3616667Y-18433333D01*
X3483333Y-18399999D01*
X3416667Y-18366666D01*
X3350000Y-18299999D01*
X3316667Y-18199999D01*
X3316667Y-18133333D01*
X3350000Y-18033333D01*
X3383333Y-17999999D01*
X3316667Y-17566666D02*
X3316667Y-17433333D01*
X3350000Y-17366666D01*
X3416667Y-17299999D01*
X3550000Y-17266666D01*
X3783333Y-17266666D01*
X3916667Y-17299999D01*
X3983333Y-17366666D01*
X4016667Y-17433333D01*
X4016667Y-17566666D01*
X3983333Y-17633333D01*
X3916667Y-17699999D01*
X3783333Y-17733333D01*
X3550000Y-17733333D01*
X3416667Y-17699999D01*
X3350000Y-17633333D01*
X3316667Y-17566666D01*
X4016667Y-16966666D02*
X3316667Y-16966666D01*
X3816667Y-16733333D01*
X3316667Y-16500000D01*
X4016667Y-16500000D01*
X4016667Y-16166666D02*
X3316667Y-16166666D01*
X3316667Y-15900000D01*
X3350000Y-15833333D01*
X3383333Y-15800000D01*
X3450000Y-15766666D01*
X3550000Y-15766666D01*
X3616667Y-15800000D01*
X3650000Y-15833333D01*
X3683333Y-15900000D01*
X3683333Y-16166666D01*
X14750000Y-5683333D02*
X14783333Y-5716667D01*
X14816667Y-5816667D01*
X14816667Y-5883333D01*
X14783333Y-5983333D01*
X14716667Y-6050000D01*
X14650000Y-6083333D01*
X14516667Y-6116667D01*
X14416667Y-6116667D01*
X14283333Y-6083333D01*
X14216667Y-6050000D01*
X14150000Y-5983333D01*
X14116667Y-5883333D01*
X14116667Y-5816667D01*
X14150000Y-5716667D01*
X14183333Y-5683333D01*
X14116667Y-5483333D02*
X14116667Y-5083333D01*
X14816667Y-5283333D02*
X14116667Y-5283333D01*
X14816667Y-4450000D02*
X14483333Y-4683334D01*
X14816667Y-4850000D02*
X14116667Y-4850000D01*
X14116667Y-4583334D01*
X14150000Y-4516667D01*
X14183333Y-4483334D01*
X14250000Y-4450000D01*
X14350000Y-4450000D01*
X14416667Y-4483334D01*
X14450000Y-4516667D01*
X14483333Y-4583334D01*
X14483333Y-4850000D01*
X14816667Y-3816667D02*
X14816667Y-4150000D01*
X14116667Y-4150000D01*
X3150000Y-9533333D02*
X3116667Y-9599999D01*
X3116667Y-9699999D01*
X3150000Y-9799999D01*
X3216667Y-9866666D01*
X3283333Y-9899999D01*
X3416667Y-9933333D01*
X3516667Y-9933333D01*
X3650000Y-9899999D01*
X3716667Y-9866666D01*
X3783333Y-9799999D01*
X3816667Y-9699999D01*
X3816667Y-9633333D01*
X3783333Y-9533333D01*
X3750000Y-9499999D01*
X3516667Y-9499999D01*
X3516667Y-9633333D01*
X3816667Y-9199999D02*
X3116667Y-9199999D01*
X3816667Y-8799999D01*
X3116667Y-8799999D01*
X3816667Y-8466666D02*
X3116667Y-8466666D01*
X3116667Y-8300000D01*
X3150000Y-8200000D01*
X3216667Y-8133333D01*
X3283333Y-8100000D01*
X3416667Y-8066666D01*
X3516667Y-8066666D01*
X3650000Y-8100000D01*
X3716667Y-8133333D01*
X3783333Y-8200000D01*
X3816667Y-8300000D01*
X3816667Y-8466666D01*
X8833334Y-11616667D02*
X9066667Y-12316667D01*
X9300000Y-11616667D01*
X9533334Y-12050000D02*
X10066667Y-12050000D01*
X9800000Y-12316667D02*
X9800000Y-11783333D01*
X4316667Y-13249999D02*
X3616667Y-13249999D01*
X3616667Y-12983333D01*
X3650000Y-12916666D01*
X3683333Y-12883333D01*
X3750000Y-12849999D01*
X3850000Y-12849999D01*
X3916667Y-12883333D01*
X3950000Y-12916666D01*
X3983333Y-12983333D01*
X3983333Y-13249999D01*
X4383333Y-12716666D02*
X4383333Y-12183333D01*
X3616667Y-11883333D02*
X3616667Y-11750000D01*
X3650000Y-11683333D01*
X3716667Y-11616666D01*
X3850000Y-11583333D01*
X4083333Y-11583333D01*
X4216667Y-11616666D01*
X4283333Y-11683333D01*
X4316667Y-11750000D01*
X4316667Y-11883333D01*
X4283333Y-11950000D01*
X4216667Y-12016666D01*
X4083333Y-12050000D01*
X3850000Y-12050000D01*
X3716667Y-12016666D01*
X3650000Y-11950000D01*
X3616667Y-11883333D01*
X3616667Y-11283333D02*
X4183333Y-11283333D01*
X4250000Y-11250000D01*
X4283333Y-11216667D01*
X4316667Y-11150000D01*
X4316667Y-11016667D01*
X4283333Y-10950000D01*
X4250000Y-10916667D01*
X4183333Y-10883333D01*
X3616667Y-10883333D01*
X3616667Y-10650000D02*
X3616667Y-10250000D01*
X4316667Y-10450000D02*
X3616667Y-10450000D01*
X4316667Y-2983332D02*
X3616667Y-2983332D01*
X3616667Y-2716666D01*
X3650000Y-2649999D01*
X3683333Y-2616666D01*
X3750000Y-2583332D01*
X3850000Y-2583332D01*
X3916667Y-2616666D01*
X3950000Y-2649999D01*
X3983333Y-2716666D01*
X3983333Y-2983332D01*
X4383333Y-2449999D02*
X4383333Y-1916666D01*
X4316667Y-1749999D02*
X3616667Y-1749999D01*
X4316667Y-1416666D02*
X3616667Y-1416666D01*
X4316667Y-1016666D01*
X3616667Y-1016666D01*
X9266667Y-7516667D02*
X9266667Y-8083333D01*
X9300000Y-8150000D01*
X9333333Y-8183333D01*
X9400000Y-8216667D01*
X9533333Y-8216667D01*
X9600000Y-8183333D01*
X9633333Y-8150000D01*
X9666667Y-8083333D01*
X9666667Y-7516667D01*
X10366666Y-8216667D02*
X9966666Y-8216667D01*
X10166666Y-8216667D02*
X10166666Y-7516667D01*
X10100000Y-7616667D01*
X10033333Y-7683333D01*
X9966666Y-7716667D01*
X17666667Y-616667D02*
X17666667Y-1116667D01*
X17633333Y-1216667D01*
X17566667Y-1283333D01*
X17466667Y-1316667D01*
X17400000Y-1316667D01*
X18000000Y-1316667D02*
X18000000Y-616667D01*
X18266666Y-616667D01*
X18333333Y-650000D01*
X18366666Y-683333D01*
X18400000Y-750000D01*
X18400000Y-850000D01*
X18366666Y-916667D01*
X18333333Y-950000D01*
X18266666Y-983333D01*
X18000000Y-983333D01*
X18666666Y-683333D02*
X18700000Y-650000D01*
X18766666Y-616667D01*
X18933333Y-616667D01*
X19000000Y-650000D01*
X19033333Y-683333D01*
X19066666Y-750000D01*
X19066666Y-816667D01*
X19033333Y-916667D01*
X18633333Y-1316667D01*
X19066666Y-1316667D01*
X15416667Y-6366667D02*
X15416667Y-6866667D01*
X15383333Y-6966667D01*
X15316667Y-7033333D01*
X15216667Y-7066667D01*
X15150000Y-7066667D01*
X15750000Y-7066667D02*
X15750000Y-6366667D01*
X16016666Y-6366667D01*
X16083333Y-6400000D01*
X16116666Y-6433333D01*
X16150000Y-6500000D01*
X16150000Y-6600000D01*
X16116666Y-6666667D01*
X16083333Y-6700000D01*
X16016666Y-6733333D01*
X15750000Y-6733333D01*
X16816666Y-7066667D02*
X16416666Y-7066667D01*
X16616666Y-7066667D02*
X16616666Y-6366667D01*
X16550000Y-6466667D01*
X16483333Y-6533333D01*
X16416666Y-6566667D01*
%LPC*%
X18377000Y-1611000D02*
X18123000Y-1611000D01*
X18377000Y-3389000D02*
X18123000Y-3389000D01*
X18250000Y-1611000D02*
X18250000Y-3389000D01*
X17361000Y-2182500D02*
X17361000Y-2881000D01*
X17615000Y-3198500D02*
X17615000Y-1801500D01*
X17742000Y-1738000D02*
X17742000Y-3262000D01*
X17869000Y-3325500D02*
X17869000Y-1674500D01*
X17996000Y-1674500D02*
X17996000Y-3325500D01*
X18123000Y-3389000D02*
X18123000Y-1611000D01*
X18123000Y-1611000D02*
G75*
G03X17234000Y-2500000I0J-889000D01*
G01*
X17234000Y-2500000D02*
G75*
G03X18123000Y-3389000I889000J0D01*
G01*
X19139000Y-2881000D02*
X19139000Y-2119000D01*
X18885000Y-1801500D02*
X18885000Y-3198500D01*
X18758000Y-3262000D02*
X18758000Y-1738000D01*
X18631000Y-1674500D02*
X18631000Y-3325500D01*
X18504000Y-3325500D02*
X18504000Y-1674500D01*
X18377000Y-3389000D02*
X18377000Y-1611000D01*
X19266000Y-2500000D02*
G75*
G03X18377000Y-1611000I-889000J0D01*
G01*
X18377000Y-3389000D02*
G75*
G03X19266000Y-2500000I0J889000D01*
G01*
X16889000Y-5127000D02*
X16889000Y-4873000D01*
X15111000Y-5127000D02*
X15111000Y-4873000D01*
X16889000Y-5000000D02*
X15111000Y-5000000D01*
X16317500Y-4111000D02*
X15619000Y-4111000D01*
X15301500Y-4365000D02*
X16698500Y-4365000D01*
X16762000Y-4492000D02*
X15238000Y-4492000D01*
X15174500Y-4619000D02*
X16825500Y-4619000D01*
X16825500Y-4746000D02*
X15174500Y-4746000D01*
X15111000Y-4873000D02*
X16889000Y-4873000D01*
X16889000Y-4873000D02*
G75*
G03X16000000Y-3984000I-889000J0D01*
G01*
X16000000Y-3984000D02*
G75*
G03X15111000Y-4873000I0J-889000D01*
G01*
X15619000Y-5889000D02*
X16381000Y-5889000D01*
X16698500Y-5635000D02*
X15301500Y-5635000D01*
X15238000Y-5508000D02*
X16762000Y-5508000D01*
X16825500Y-5381000D02*
X15174500Y-5381000D01*
X15174500Y-5254000D02*
X16825500Y-5254000D01*
X15111000Y-5127000D02*
X16889000Y-5127000D01*
X16000000Y-6016000D02*
G75*
G03X16889000Y-5127000I0J889000D01*
G01*
X15111000Y-5127000D02*
G75*
G03X16000000Y-6016000I889000J0D01*
G01*
D15*
X18050000Y-7350000D03*
X18050000Y-8650000D03*
X19950000Y-8000000D03*
D16*
X27000000Y-13650000D03*
X27000000Y-17850000D03*
D17*
X6500000Y-14000000D03*
D18*
X6500000Y-16540000D03*
D17*
X6500000Y-11460000D03*
D19*
X5000000Y-7500000D03*
X5000000Y-4500000D03*
D20*
X22800000Y-11650000D03*
X20500000Y-11650000D03*
X18200000Y-11650000D03*
D21*
X20500000Y-17850000D03*
D22*
X2000000Y-18000000D03*
X13000000Y-5000000D03*
X2000000Y-9000000D03*
X9500000Y-10500000D03*
D23*
X2000000Y-11750000D03*
X2000000Y-2000000D03*
D24*
X9600000Y-6950000D03*
X9600000Y-5050000D03*
X9600000Y-6000000D03*
X7400000Y-5050000D03*
X7400000Y-6950000D03*
D25*
X8750000Y-1350840D03*
X8750000Y-3149160D03*
D10*
G36*
X18350000Y-3150000D02*
X18350000Y-1850000D01*
X19150000Y-1950000D01*
X19150000Y-3050000D01*
X18350000Y-3150000D01*
X18350000Y-3150000D01*
G37*
G36*
X18150000Y-1850000D02*
X18150000Y-3150000D01*
X17350000Y-3050000D01*
X17350000Y-1950000D01*
X18150000Y-1850000D01*
X18150000Y-1850000D01*
G37*
G36*
X15350000Y-5100000D02*
X16650000Y-5100000D01*
X16550000Y-5900000D01*
X15450000Y-5900000D01*
X15350000Y-5100000D01*
X15350000Y-5100000D01*
G37*
G36*
X16650000Y-4900000D02*
X15350000Y-4900000D01*
X15450000Y-4100000D01*
X16550000Y-4100000D01*
X16650000Y-4900000D01*
X16650000Y-4900000D01*
G37*
D26*
X9500000Y-13500000D03*
X11500000Y-13500000D03*
X9500000Y-17500000D03*
X11500000Y-17500000D03*
D27*
X13450000Y-17250000D03*
X15050000Y-17250000D03*
D16*
X27000000Y-10600000D03*
X27000000Y-6400000D03*
X23000000Y-8350000D03*
X23000000Y-4150000D03*
D28*
X11600000Y-8250000D03*
X13400000Y-8250000D03*
X5350000Y-2000000D03*
X7150000Y-2000000D03*
D29*
X1250000Y-14100000D03*
X2750000Y-14100000D03*
D30*
X16250000Y-3000000D03*
X16250000Y-1500000D03*
D15*
X15950000Y-11150000D03*
X15950000Y-9850000D03*
X14050000Y-10500000D03*
X12550000Y-1600000D03*
X12550000Y-2900000D03*
X14450000Y-2250000D03*
D31*
X11200000Y-1550000D03*
X11200000Y-2450000D03*
X11250000Y-4300000D03*
X11250000Y-5200000D03*
X12500000Y-10300000D03*
X12500000Y-11200000D03*
X11300000Y-6500000D03*
X12200000Y-6500000D03*
X11250000Y-10300000D03*
X11250000Y-11200000D03*
D15*
X18050000Y-4600000D03*
X18050000Y-5900000D03*
X19950000Y-5250000D03*
D31*
X2450000Y-15400000D03*
X1550000Y-15400000D03*
D32*
X14600000Y-14000000D03*
X27400000Y-2600000D03*
D31*
X10100000Y-1550000D03*
X10100000Y-2450000D03*
X9550000Y-15500000D03*
X10450000Y-15500000D03*
X2450000Y-16500000D03*
X1550000Y-16500000D03*
M02*
