M48
;DRILL file {KiCad (2016-02-18 BZR 6566, Git c2fd462)-product} date Thu 25 Feb 2016 06:22:53 PM EST
;FORMAT={2:4/ absolute / inch / suppress leading zeros}
FMAT,2
INCH,TZ
T1C0.016
T2C0.039
T3C0.050
T4C0.079
%
G90
G05
M72
T1
X1870Y-7087
X2835Y-1260
X3150Y-7185
X3346Y-2362
X4152Y-2284
X4331Y-1280
X5315Y-2756
X5315Y-3740
X7272Y-3949
X7921Y-3680
X7972Y-6004
X8563Y-1673
X9055Y-984
X9055Y-2264
X9547Y-1673
X9744Y-6004
X11122Y-3346
T2
X787Y-3543
X787Y-7087
X3740Y-4134
X5118Y-1969
T3
X2559Y-4512
X2559Y-5512
X2559Y-6512
T4
X787Y-787
X787Y-4626
T0
M30
